<svg width="256" height="256" viewBox="0 0 256 256" fill="none" xmlns="http://www.w3.org/2000/svg">
  <rect width="256" height="256" rx="56" fill="#C6A08F"/>
  <path d="M129 47C151.2 47 164.5 59 164.5 76.5H156C156 61.3 144.9 51.4 129.8 51.4C114.5 51.4 103.8 60.8 103.8 73.8C103.8 90.7 120 97.2 136.5 104.2C154.1 111.8 172.4 120.1 172.4 140.3C172.4 162.7 154.6 178.2 129.6 178.2C103.9 178.2 86.6 162.4 86.6 137.4H95.1C95.1 159.6 109.8 173.8 129.7 173.8C149 173.8 163.9 161.9 163.9 144.5C163.9 126.9 147.1 119.8 129.8 112.3C112.7 104.9 95.5 97.1 95.5 78.4C95.5 59.6 110.2 47 129 47Z" fill="#050505"/>
  <path d="M73 190V96H83.1L160.6 177.9V96H169.2V190H159L81.6 108V190H73Z" fill="#050505"/>
  <path d="M188.2 73.4L191.2 80.7L198.5 83.7L191.2 86.7L188.2 94L185.2 86.7L177.9 83.7L185.2 80.7L188.2 73.4Z" fill="#050505"/>
</svg>
